<svg xmlns="http://www.w3.org/2000/svg" viewBox="0 0 220 150" width="220" height="150">
  <defs>
    <linearGradient id="bg" x1="0%" y1="0%" x2="100%" y2="100%">
      <stop offset="0%" style="stop-color:#0f172a"/><stop offset="100%" style="stop-color:#1e293b"/>
    </linearGradient>
  </defs>
  <rect width="220" height="150" fill="url(#bg)" rx="6"/>

  <!-- One-bit quanta image (left) — binary pixel grid -->
  <rect x="10" y="18" width="60" height="60" rx="3" fill="#0f172a" stroke="#2d3f5a" stroke-width="1"/>
  <!-- Binary pixel pattern simulating a scene -->
  <!-- Row 1 -->
  <rect x="11" y="19" width="5" height="5" fill="#f1f5f9" opacity="0.9"/>
  <rect x="17" y="19" width="5" height="5" fill="#0f172a"/>
  <rect x="23" y="19" width="5" height="5" fill="#f1f5f9" opacity="0.8"/>
  <rect x="29" y="19" width="5" height="5" fill="#f1f5f9" opacity="0.9"/>
  <rect x="35" y="19" width="5" height="5" fill="#0f172a"/>
  <rect x="41" y="19" width="5" height="5" fill="#f1f5f9" opacity="0.7"/>
  <rect x="47" y="19" width="5" height="5" fill="#0f172a"/>
  <rect x="53" y="19" width="5" height="5" fill="#f1f5f9" opacity="0.9"/>
  <rect x="59" y="19" width="5" height="5" fill="#0f172a"/>
  <!-- Row 2 -->
  <rect x="11" y="25" width="5" height="5" fill="#0f172a"/>
  <rect x="17" y="25" width="5" height="5" fill="#f1f5f9" opacity="0.9"/>
  <rect x="23" y="25" width="5" height="5" fill="#0f172a"/>
  <rect x="29" y="25" width="5" height="5" fill="#f1f5f9" opacity="0.8"/>
  <rect x="35" y="25" width="5" height="5" fill="#f1f5f9" opacity="0.9"/>
  <rect x="41" y="25" width="5" height="5" fill="#0f172a"/>
  <rect x="47" y="25" width="5" height="5" fill="#f1f5f9" opacity="0.8"/>
  <rect x="53" y="25" width="5" height="5" fill="#f1f5f9" opacity="0.9"/>
  <rect x="59" y="25" width="5" height="5" fill="#0f172a"/>
  <!-- Row 3 (object outline) -->
  <rect x="11" y="31" width="5" height="5" fill="#f1f5f9" opacity="0.7"/>
  <rect x="17" y="31" width="5" height="5" fill="#0f172a"/>
  <rect x="23" y="31" width="5" height="5" fill="#f1f5f9" opacity="0.9"/>
  <rect x="29" y="31" width="5" height="5" fill="#f1f5f9" opacity="0.9"/>
  <rect x="35" y="31" width="5" height="5" fill="#f1f5f9" opacity="0.8"/>
  <rect x="41" y="31" width="5" height="5" fill="#f1f5f9" opacity="0.9"/>
  <rect x="47" y="31" width="5" height="5" fill="#0f172a"/>
  <rect x="53" y="31" width="5" height="5" fill="#f1f5f9" opacity="0.7"/>
  <rect x="59" y="31" width="5" height="5" fill="#f1f5f9" opacity="0.9"/>
  <!-- Rows 4-7 (denser object) -->
  <rect x="11" y="37" width="5" height="5" fill="#0f172a"/>
  <rect x="17" y="37" width="5" height="5" fill="#f1f5f9" opacity="0.9"/>
  <rect x="23" y="37" width="5" height="5" fill="#f1f5f9" opacity="0.9"/>
  <rect x="29" y="37" width="5" height="5" fill="#0f172a"/>
  <rect x="35" y="37" width="5" height="5" fill="#f1f5f9" opacity="0.9"/>
  <rect x="41" y="37" width="5" height="5" fill="#f1f5f9" opacity="0.8"/>
  <rect x="47" y="37" width="5" height="5" fill="#f1f5f9" opacity="0.9"/>
  <rect x="53" y="37" width="5" height="5" fill="#0f172a"/>
  <rect x="59" y="37" width="5" height="5" fill="#f1f5f9" opacity="0.9"/>
  <rect x="11" y="43" width="5" height="5" fill="#f1f5f9" opacity="0.8"/>
  <rect x="17" y="43" width="5" height="5" fill="#0f172a"/>
  <rect x="23" y="43" width="5" height="5" fill="#f1f5f9" opacity="0.9"/>
  <rect x="29" y="43" width="5" height="5" fill="#f1f5f9" opacity="0.7"/>
  <rect x="35" y="43" width="5" height="5" fill="#0f172a"/>
  <rect x="41" y="43" width="5" height="5" fill="#f1f5f9" opacity="0.9"/>
  <rect x="47" y="43" width="5" height="5" fill="#0f172a"/>
  <rect x="53" y="43" width="5" height="5" fill="#f1f5f9" opacity="0.9"/>
  <rect x="59" y="43" width="5" height="5" fill="#0f172a"/>
  <rect x="11" y="49" width="5" height="5" fill="#0f172a"/>
  <rect x="17" y="49" width="5" height="5" fill="#f1f5f9" opacity="0.9"/>
  <rect x="23" y="49" width="5" height="5" fill="#0f172a"/>
  <rect x="29" y="49" width="5" height="5" fill="#f1f5f9" opacity="0.9"/>
  <rect x="35" y="49" width="5" height="5" fill="#f1f5f9" opacity="0.8"/>
  <rect x="41" y="49" width="5" height="5" fill="#0f172a"/>
  <rect x="47" y="49" width="5" height="5" fill="#f1f5f9" opacity="0.9"/>
  <rect x="53" y="49" width="5" height="5" fill="#0f172a"/>
  <rect x="59" y="49" width="5" height="5" fill="#f1f5f9" opacity="0.7"/>
  <rect x="11" y="55" width="5" height="5" fill="#f1f5f9" opacity="0.9"/>
  <rect x="17" y="55" width="5" height="5" fill="#f1f5f9" opacity="0.7"/>
  <rect x="23" y="55" width="5" height="5" fill="#0f172a"/>
  <rect x="29" y="55" width="5" height="5" fill="#f1f5f9" opacity="0.9"/>
  <rect x="35" y="55" width="5" height="5" fill="#0f172a"/>
  <rect x="41" y="55" width="5" height="5" fill="#f1f5f9" opacity="0.9"/>
  <rect x="47" y="55" width="5" height="5" fill="#f1f5f9" opacity="0.8"/>
  <rect x="53" y="55" width="5" height="5" fill="#f1f5f9" opacity="0.9"/>
  <rect x="59" y="55" width="5" height="5" fill="#0f172a"/>
  <rect x="11" y="61" width="5" height="5" fill="#0f172a"/>
  <rect x="17" y="61" width="5" height="5" fill="#f1f5f9" opacity="0.8"/>
  <rect x="23" y="61" width="5" height="5" fill="#f1f5f9" opacity="0.9"/>
  <rect x="29" y="61" width="5" height="5" fill="#0f172a"/>
  <rect x="35" y="61" width="5" height="5" fill="#f1f5f9" opacity="0.7"/>
  <rect x="41" y="61" width="5" height="5" fill="#0f172a"/>
  <rect x="47" y="61" width="5" height="5" fill="#f1f5f9" opacity="0.9"/>
  <rect x="53" y="61" width="5" height="5" fill="#f1f5f9" opacity="0.8"/>
  <rect x="59" y="61" width="5" height="5" fill="#f1f5f9" opacity="0.9"/>
  <text x="40" y="90" text-anchor="middle" font-family="sans-serif" font-size="6" fill="#b8c9dc">1-bit quanta image</text>

  <!-- Arrow -->
  <line x1="74" y1="48" x2="86" y2="48" stroke="#CEB888" stroke-width="1.5"/>
  <polygon points="86,44 96,48 86,52" fill="#CEB888"/>
  <text x="85" y="40" text-anchor="middle" font-family="sans-serif" font-size="6" fill="#CEB888">generative</text>
  <text x="85" y="60" text-anchor="middle" font-family="sans-serif" font-size="6" fill="#CEB888">colorize</text>

  <!-- Colorized output (right) — scene with colors -->
  <rect x="100" y="18" width="110" height="60" rx="3" fill="#1e293b" stroke="#CEB888" stroke-width="1.5"/>
  <!-- Sky -->
  <rect x="101" y="19" width="108" height="24" rx="2" fill="#1a2d4a"/>
  <!-- Sun -->
  <circle cx="190" cy="30" r="8" fill="#CEB888" opacity="0.7"/>
  <!-- Ground -->
  <rect x="101" y="43" width="108" height="34" rx="2" fill="#1a2d1a"/>
  <!-- Flower/plant shapes in color -->
  <ellipse cx="125" cy="44" rx="10" ry="7" fill="#2d5a2d"/>
  <circle cx="120" cy="38" r="4" fill="#e8a0a0" opacity="0.8"/>
  <circle cx="128" cy="36" r="4" fill="#CEB888" opacity="0.7"/>
  <circle cx="133" cy="40" r="3" fill="#e8c0a0" opacity="0.7"/>
  <!-- Water/sky reflection -->
  <ellipse cx="165" cy="55" rx="18" ry="8" fill="#1a3a5a" opacity="0.8"/>
  <ellipse cx="165" cy="55" rx="9" ry="4" fill="#2a5080" opacity="0.6"/>
  <!-- Tree -->
  <rect x="195" y="42" width="4" height="20" fill="#5a3a1a" opacity="0.8"/>
  <ellipse cx="197" cy="40" rx="8" ry="10" fill="#1e4a1e" opacity="0.9"/>
  <text x="155" y="90" text-anchor="middle" font-family="sans-serif" font-size="6" fill="#b8c9dc">colorized output</text>

  <!-- Color palette dots -->
  <circle cx="108" cy="96" r="4" fill="#e8a0a0" opacity="0.8"/>
  <circle cx="118" cy="96" r="4" fill="#CEB888" opacity="0.8"/>
  <circle cx="128" cy="96" r="4" fill="#2d8a2d" opacity="0.8"/>
  <circle cx="138" cy="96" r="4" fill="#2a5080" opacity="0.8"/>
  <circle cx="148" cy="96" r="4" fill="#e8c080" opacity="0.8"/>
  <circle cx="158" cy="96" r="4" fill="#8a3a8a" opacity="0.7"/>

  <!-- Bottom label -->
  <text x="110" y="116" text-anchor="middle" font-family="sans-serif" font-size="7.5" font-weight="600" fill="#f1f5f9">Generative Quanta Color Imaging</text>
  <text x="110" y="128" text-anchor="middle" font-family="sans-serif" font-size="7" fill="#CEB888">One-bit Colorization · CVPR 2024</text>
  <text x="110" y="141" text-anchor="middle" font-family="sans-serif" font-size="6" fill="#b8c9dc">adverse exposure · generative model</text>
</svg>
